<mxfile host="app.diagrams.net" agent="Mozilla/5.0 (Windows NT 10.0; Win64; x64) AppleWebKit/537.36 (KHTML, like Gecko) Chrome/136.0.0.0 Safari/537.36" version="27.0.3">
  <diagram name="PÃ¡gina-1" id="PzgKcJgdS4BRo5zgQNFd">
    <mxGraphModel dx="4252" dy="854" grid="1" gridSize="10" guides="1" tooltips="1" connect="1" arrows="1" fold="1" page="1" pageScale="1" pageWidth="827" pageHeight="1169" math="0" shadow="0">
      <root>
        <mxCell id="0" />
        <mxCell id="1" parent="0" />
        <mxCell id="1mkXny4aGShVq_r8HLl9-55" value="" style="rounded=1;whiteSpace=wrap;html=1;fillColor=light-dark(#FFFFFF,#000000);strokeColor=light-dark(#000000,#FF2248);" vertex="1" parent="1">
          <mxGeometry x="-1950" y="1680" width="920" height="230" as="geometry" />
        </mxCell>
        <mxCell id="1mkXny4aGShVq_r8HLl9-54" value="" style="rounded=1;whiteSpace=wrap;html=1;fillColor=light-dark(#FFFFFF,#000000);strokeColor=light-dark(#000000,#FF2248);" vertex="1" parent="1">
          <mxGeometry x="-1620" y="1440" width="860" height="230" as="geometry" />
        </mxCell>
        <mxCell id="1mkXny4aGShVq_r8HLl9-39" value="" style="rounded=1;whiteSpace=wrap;html=1;fillColor=light-dark(#FFFFFF,#000000);strokeColor=light-dark(#000000,#FF2248);" vertex="1" parent="1">
          <mxGeometry x="-1400" y="970" width="1270" height="230" as="geometry" />
        </mxCell>
        <mxCell id="1mkXny4aGShVq_r8HLl9-38" value="" style="rounded=1;whiteSpace=wrap;html=1;fillColor=light-dark(#FFFFFF,#000000);strokeColor=light-dark(#000000,#FF2248);" vertex="1" parent="1">
          <mxGeometry x="-1270" y="720" width="980" height="230" as="geometry" />
        </mxCell>
        <mxCell id="1mkXny4aGShVq_r8HLl9-25" value="" style="rounded=1;whiteSpace=wrap;html=1;fillColor=light-dark(#FFFFFF,#000000);strokeColor=light-dark(#000000,#FF2248);" vertex="1" parent="1">
          <mxGeometry x="-910" y="280" width="600" height="170" as="geometry" />
        </mxCell>
        <mxCell id="1mkXny4aGShVq_r8HLl9-15" value="" style="rounded=1;whiteSpace=wrap;html=1;fillColor=light-dark(#FFFFFF,#000000);strokeColor=light-dark(#000000,#FF2248);" vertex="1" parent="1">
          <mxGeometry x="-900" y="80" width="600" height="170" as="geometry" />
        </mxCell>
        <mxCell id="1mkXny4aGShVq_r8HLl9-2" style="edgeStyle=orthogonalEdgeStyle;rounded=0;orthogonalLoop=1;jettySize=auto;html=1;" edge="1" parent="1" source="1mkXny4aGShVq_r8HLl9-1">
          <mxGeometry relative="1" as="geometry">
            <mxPoint x="-610" y="170" as="targetPoint" />
          </mxGeometry>
        </mxCell>
        <mxCell id="1mkXny4aGShVq_r8HLl9-1" value="" style="rounded=0;whiteSpace=wrap;html=1;" vertex="1" parent="1">
          <mxGeometry x="-670" y="10" width="120" height="60" as="geometry" />
        </mxCell>
        <mxCell id="1mkXny4aGShVq_r8HLl9-3" value="" style="endArrow=none;html=1;rounded=0;" edge="1" parent="1">
          <mxGeometry width="50" height="50" relative="1" as="geometry">
            <mxPoint x="-820" y="110" as="sourcePoint" />
            <mxPoint x="-390" y="110" as="targetPoint" />
            <Array as="points" />
          </mxGeometry>
        </mxCell>
        <mxCell id="1mkXny4aGShVq_r8HLl9-9" style="edgeStyle=orthogonalEdgeStyle;rounded=0;orthogonalLoop=1;jettySize=auto;html=1;shape=link;" edge="1" parent="1" source="1mkXny4aGShVq_r8HLl9-4">
          <mxGeometry relative="1" as="geometry">
            <mxPoint x="-610" y="300" as="targetPoint" />
          </mxGeometry>
        </mxCell>
        <mxCell id="1mkXny4aGShVq_r8HLl9-4" value="" style="rounded=0;whiteSpace=wrap;html=1;" vertex="1" parent="1">
          <mxGeometry x="-670" y="150" width="120" height="60" as="geometry" />
        </mxCell>
        <mxCell id="1mkXny4aGShVq_r8HLl9-7" style="edgeStyle=orthogonalEdgeStyle;rounded=0;orthogonalLoop=1;jettySize=auto;html=1;shape=link;" edge="1" parent="1" source="1mkXny4aGShVq_r8HLl9-5">
          <mxGeometry relative="1" as="geometry">
            <mxPoint x="-820" y="100" as="targetPoint" />
          </mxGeometry>
        </mxCell>
        <mxCell id="1mkXny4aGShVq_r8HLl9-5" value="" style="rounded=0;whiteSpace=wrap;html=1;" vertex="1" parent="1">
          <mxGeometry x="-880" y="150" width="120" height="60" as="geometry" />
        </mxCell>
        <mxCell id="1mkXny4aGShVq_r8HLl9-8" style="edgeStyle=orthogonalEdgeStyle;rounded=0;orthogonalLoop=1;jettySize=auto;html=1;shape=link;" edge="1" parent="1" source="1mkXny4aGShVq_r8HLl9-6">
          <mxGeometry relative="1" as="geometry">
            <mxPoint x="-400" y="100" as="targetPoint" />
          </mxGeometry>
        </mxCell>
        <mxCell id="1mkXny4aGShVq_r8HLl9-6" value="" style="rounded=0;whiteSpace=wrap;html=1;" vertex="1" parent="1">
          <mxGeometry x="-460" y="150" width="120" height="60" as="geometry" />
        </mxCell>
        <mxCell id="1mkXny4aGShVq_r8HLl9-10" value="" style="endArrow=none;html=1;rounded=0;" edge="1" parent="1">
          <mxGeometry width="50" height="50" relative="1" as="geometry">
            <mxPoint x="-740" y="290" as="sourcePoint" />
            <mxPoint x="-460" y="290" as="targetPoint" />
            <Array as="points" />
          </mxGeometry>
        </mxCell>
        <mxCell id="1mkXny4aGShVq_r8HLl9-13" style="edgeStyle=orthogonalEdgeStyle;rounded=0;orthogonalLoop=1;jettySize=auto;html=1;shape=link;" edge="1" parent="1" source="1mkXny4aGShVq_r8HLl9-11">
          <mxGeometry relative="1" as="geometry">
            <mxPoint x="-740" y="290" as="targetPoint" />
          </mxGeometry>
        </mxCell>
        <mxCell id="1mkXny4aGShVq_r8HLl9-11" value="" style="rounded=0;whiteSpace=wrap;html=1;" vertex="1" parent="1">
          <mxGeometry x="-780" y="360" width="80" height="60" as="geometry" />
        </mxCell>
        <mxCell id="1mkXny4aGShVq_r8HLl9-14" style="edgeStyle=orthogonalEdgeStyle;rounded=0;orthogonalLoop=1;jettySize=auto;html=1;shape=link;" edge="1" parent="1" source="1mkXny4aGShVq_r8HLl9-12">
          <mxGeometry relative="1" as="geometry">
            <mxPoint x="-460" y="290" as="targetPoint" />
          </mxGeometry>
        </mxCell>
        <mxCell id="1mkXny4aGShVq_r8HLl9-12" value="" style="rounded=0;whiteSpace=wrap;html=1;" vertex="1" parent="1">
          <mxGeometry x="-500" y="360" width="80" height="60" as="geometry" />
        </mxCell>
        <mxCell id="1mkXny4aGShVq_r8HLl9-19" style="edgeStyle=orthogonalEdgeStyle;rounded=0;orthogonalLoop=1;jettySize=auto;html=1;shape=link;" edge="1" parent="1" source="1mkXny4aGShVq_r8HLl9-18">
          <mxGeometry relative="1" as="geometry">
            <mxPoint x="-780" y="760" as="targetPoint" />
            <Array as="points">
              <mxPoint x="-780" y="760" />
            </Array>
          </mxGeometry>
        </mxCell>
        <mxCell id="1mkXny4aGShVq_r8HLl9-18" value="" style="rounded=0;whiteSpace=wrap;html=1;" vertex="1" parent="1">
          <mxGeometry x="-840" y="640" width="120" height="60" as="geometry" />
        </mxCell>
        <mxCell id="1mkXny4aGShVq_r8HLl9-20" value="" style="endArrow=none;html=1;rounded=0;" edge="1" parent="1">
          <mxGeometry width="50" height="50" relative="1" as="geometry">
            <mxPoint x="-1120" y="760" as="sourcePoint" />
            <mxPoint x="-480" y="760" as="targetPoint" />
          </mxGeometry>
        </mxCell>
        <mxCell id="1mkXny4aGShVq_r8HLl9-22" style="edgeStyle=orthogonalEdgeStyle;rounded=0;orthogonalLoop=1;jettySize=auto;html=1;shape=link;" edge="1" parent="1" source="1mkXny4aGShVq_r8HLl9-21">
          <mxGeometry relative="1" as="geometry">
            <mxPoint x="-1120" y="750" as="targetPoint" />
          </mxGeometry>
        </mxCell>
        <mxCell id="1mkXny4aGShVq_r8HLl9-21" value="" style="rounded=0;whiteSpace=wrap;html=1;" vertex="1" parent="1">
          <mxGeometry x="-1180" y="840" width="120" height="60" as="geometry" />
        </mxCell>
        <mxCell id="1mkXny4aGShVq_r8HLl9-23" style="edgeStyle=orthogonalEdgeStyle;rounded=0;orthogonalLoop=1;jettySize=auto;html=1;shape=link;" edge="1" parent="1" source="1mkXny4aGShVq_r8HLl9-24">
          <mxGeometry relative="1" as="geometry">
            <mxPoint x="-480" y="760" as="targetPoint" />
            <Array as="points">
              <mxPoint x="-480" y="760" />
            </Array>
          </mxGeometry>
        </mxCell>
        <mxCell id="1mkXny4aGShVq_r8HLl9-24" value="" style="rounded=0;whiteSpace=wrap;html=1;" vertex="1" parent="1">
          <mxGeometry x="-533" y="870" width="120" height="60" as="geometry" />
        </mxCell>
        <mxCell id="1mkXny4aGShVq_r8HLl9-26" style="edgeStyle=orthogonalEdgeStyle;rounded=0;orthogonalLoop=1;jettySize=auto;html=1;shape=link;" edge="1" parent="1">
          <mxGeometry relative="1" as="geometry">
            <mxPoint x="-1130" y="980" as="targetPoint" />
            <mxPoint x="-1130" y="900" as="sourcePoint" />
          </mxGeometry>
        </mxCell>
        <mxCell id="1mkXny4aGShVq_r8HLl9-27" value="" style="endArrow=none;html=1;rounded=0;" edge="1" parent="1">
          <mxGeometry width="50" height="50" relative="1" as="geometry">
            <mxPoint x="-1320" y="980" as="sourcePoint" />
            <mxPoint x="-952.5" y="980" as="targetPoint" />
          </mxGeometry>
        </mxCell>
        <mxCell id="1mkXny4aGShVq_r8HLl9-28" style="edgeStyle=orthogonalEdgeStyle;rounded=0;orthogonalLoop=1;jettySize=auto;html=1;shape=link;" edge="1" parent="1" source="1mkXny4aGShVq_r8HLl9-29">
          <mxGeometry relative="1" as="geometry">
            <mxPoint x="-1320" y="980" as="targetPoint" />
          </mxGeometry>
        </mxCell>
        <mxCell id="1mkXny4aGShVq_r8HLl9-29" value="" style="rounded=0;whiteSpace=wrap;html=1;" vertex="1" parent="1">
          <mxGeometry x="-1380" y="1090" width="120" height="60" as="geometry" />
        </mxCell>
        <mxCell id="1mkXny4aGShVq_r8HLl9-30" style="edgeStyle=orthogonalEdgeStyle;rounded=0;orthogonalLoop=1;jettySize=auto;html=1;shape=link;" edge="1" parent="1" source="1mkXny4aGShVq_r8HLl9-31">
          <mxGeometry relative="1" as="geometry">
            <mxPoint x="-950" y="980" as="targetPoint" />
          </mxGeometry>
        </mxCell>
        <mxCell id="1mkXny4aGShVq_r8HLl9-31" value="" style="rounded=0;whiteSpace=wrap;html=1;" vertex="1" parent="1">
          <mxGeometry x="-1010" y="1090" width="120" height="60" as="geometry" />
        </mxCell>
        <mxCell id="1mkXny4aGShVq_r8HLl9-32" style="edgeStyle=orthogonalEdgeStyle;rounded=0;orthogonalLoop=1;jettySize=auto;html=1;shape=link;" edge="1" parent="1">
          <mxGeometry relative="1" as="geometry">
            <mxPoint x="-470" y="989.9999999999998" as="targetPoint" />
            <mxPoint x="-470" y="930" as="sourcePoint" />
          </mxGeometry>
        </mxCell>
        <mxCell id="1mkXny4aGShVq_r8HLl9-33" value="" style="endArrow=none;html=1;rounded=0;" edge="1" parent="1">
          <mxGeometry width="50" height="50" relative="1" as="geometry">
            <mxPoint x="-660" y="990" as="sourcePoint" />
            <mxPoint x="-292.5" y="990" as="targetPoint" />
          </mxGeometry>
        </mxCell>
        <mxCell id="1mkXny4aGShVq_r8HLl9-34" style="edgeStyle=orthogonalEdgeStyle;rounded=0;orthogonalLoop=1;jettySize=auto;html=1;shape=link;" edge="1" parent="1" source="1mkXny4aGShVq_r8HLl9-35">
          <mxGeometry relative="1" as="geometry">
            <mxPoint x="-660" y="980" as="targetPoint" />
          </mxGeometry>
        </mxCell>
        <mxCell id="1mkXny4aGShVq_r8HLl9-35" value="" style="rounded=0;whiteSpace=wrap;html=1;" vertex="1" parent="1">
          <mxGeometry x="-720" y="1070" width="120" height="60" as="geometry" />
        </mxCell>
        <mxCell id="1mkXny4aGShVq_r8HLl9-36" style="edgeStyle=orthogonalEdgeStyle;rounded=0;orthogonalLoop=1;jettySize=auto;html=1;shape=link;" edge="1" parent="1" source="1mkXny4aGShVq_r8HLl9-37">
          <mxGeometry relative="1" as="geometry">
            <mxPoint x="-290" y="990" as="targetPoint" />
          </mxGeometry>
        </mxCell>
        <mxCell id="1mkXny4aGShVq_r8HLl9-37" value="" style="rounded=0;whiteSpace=wrap;html=1;" vertex="1" parent="1">
          <mxGeometry x="-350" y="1080" width="120" height="60" as="geometry" />
        </mxCell>
        <mxCell id="1mkXny4aGShVq_r8HLl9-41" style="edgeStyle=orthogonalEdgeStyle;rounded=0;orthogonalLoop=1;jettySize=auto;html=1;shape=link;" edge="1" parent="1" source="1mkXny4aGShVq_r8HLl9-40">
          <mxGeometry relative="1" as="geometry">
            <mxPoint x="-1270" y="1460" as="targetPoint" />
          </mxGeometry>
        </mxCell>
        <mxCell id="1mkXny4aGShVq_r8HLl9-40" value="" style="rounded=0;whiteSpace=wrap;html=1;" vertex="1" parent="1">
          <mxGeometry x="-1330" y="1320" width="120" height="60" as="geometry" />
        </mxCell>
        <mxCell id="1mkXny4aGShVq_r8HLl9-42" value="" style="endArrow=none;html=1;rounded=0;shape=link;" edge="1" parent="1">
          <mxGeometry width="50" height="50" relative="1" as="geometry">
            <mxPoint x="-1500" y="1460" as="sourcePoint" />
            <mxPoint x="-940" y="1460" as="targetPoint" />
          </mxGeometry>
        </mxCell>
        <mxCell id="1mkXny4aGShVq_r8HLl9-44" style="edgeStyle=orthogonalEdgeStyle;rounded=0;orthogonalLoop=1;jettySize=auto;html=1;shape=link;" edge="1" parent="1" source="1mkXny4aGShVq_r8HLl9-43">
          <mxGeometry relative="1" as="geometry">
            <mxPoint x="-950" y="1460" as="targetPoint" />
          </mxGeometry>
        </mxCell>
        <mxCell id="1mkXny4aGShVq_r8HLl9-43" value="" style="rounded=0;whiteSpace=wrap;html=1;" vertex="1" parent="1">
          <mxGeometry x="-1010" y="1570" width="120" height="60" as="geometry" />
        </mxCell>
        <mxCell id="1mkXny4aGShVq_r8HLl9-53" style="edgeStyle=orthogonalEdgeStyle;rounded=0;orthogonalLoop=1;jettySize=auto;html=1;shape=link;" edge="1" parent="1" source="1mkXny4aGShVq_r8HLl9-45">
          <mxGeometry relative="1" as="geometry">
            <mxPoint x="-1500" y="1450" as="targetPoint" />
          </mxGeometry>
        </mxCell>
        <mxCell id="1mkXny4aGShVq_r8HLl9-45" value="" style="rounded=0;whiteSpace=wrap;html=1;" vertex="1" parent="1">
          <mxGeometry x="-1560" y="1560" width="120" height="60" as="geometry" />
        </mxCell>
        <mxCell id="1mkXny4aGShVq_r8HLl9-47" style="edgeStyle=orthogonalEdgeStyle;rounded=0;orthogonalLoop=1;jettySize=auto;html=1;shape=link;" edge="1" parent="1">
          <mxGeometry relative="1" as="geometry">
            <mxPoint x="-1510" y="1700" as="targetPoint" />
            <mxPoint x="-1510" y="1620" as="sourcePoint" />
          </mxGeometry>
        </mxCell>
        <mxCell id="1mkXny4aGShVq_r8HLl9-48" value="" style="endArrow=none;html=1;rounded=0;" edge="1" parent="1">
          <mxGeometry width="50" height="50" relative="1" as="geometry">
            <mxPoint x="-1820" y="1700" as="sourcePoint" />
            <mxPoint x="-1180" y="1700" as="targetPoint" />
          </mxGeometry>
        </mxCell>
        <mxCell id="1mkXny4aGShVq_r8HLl9-49" style="edgeStyle=orthogonalEdgeStyle;rounded=0;orthogonalLoop=1;jettySize=auto;html=1;shape=link;" edge="1" parent="1" source="1mkXny4aGShVq_r8HLl9-50">
          <mxGeometry relative="1" as="geometry">
            <mxPoint x="-1190" y="1700" as="targetPoint" />
          </mxGeometry>
        </mxCell>
        <mxCell id="1mkXny4aGShVq_r8HLl9-50" value="" style="rounded=0;whiteSpace=wrap;html=1;" vertex="1" parent="1">
          <mxGeometry x="-1250" y="1810" width="120" height="60" as="geometry" />
        </mxCell>
        <mxCell id="1mkXny4aGShVq_r8HLl9-51" style="edgeStyle=orthogonalEdgeStyle;rounded=0;orthogonalLoop=1;jettySize=auto;html=1;shape=link;" edge="1" parent="1" source="1mkXny4aGShVq_r8HLl9-52">
          <mxGeometry relative="1" as="geometry">
            <mxPoint x="-1810" y="1690" as="targetPoint" />
          </mxGeometry>
        </mxCell>
        <mxCell id="1mkXny4aGShVq_r8HLl9-52" value="" style="rounded=0;whiteSpace=wrap;html=1;" vertex="1" parent="1">
          <mxGeometry x="-1870" y="1800" width="120" height="60" as="geometry" />
        </mxCell>
        <mxCell id="1mkXny4aGShVq_r8HLl9-56" value="&lt;font style=&quot;font-size: 24px;&quot;&gt;C&lt;/font&gt;" style="text;html=1;align=center;verticalAlign=middle;whiteSpace=wrap;rounded=0;" vertex="1" parent="1">
          <mxGeometry x="-855" y="165" width="70" height="30" as="geometry" />
        </mxCell>
        <mxCell id="1mkXny4aGShVq_r8HLl9-57" value="&lt;font style=&quot;font-size: 24px;&quot;&gt;C&lt;/font&gt;" style="text;html=1;align=center;verticalAlign=middle;whiteSpace=wrap;rounded=0;" vertex="1" parent="1">
          <mxGeometry x="-435" y="165" width="70" height="30" as="geometry" />
        </mxCell>
        <mxCell id="1mkXny4aGShVq_r8HLl9-58" value="&lt;font style=&quot;font-size: 24px;&quot;&gt;C&lt;/font&gt;" style="text;html=1;align=center;verticalAlign=middle;whiteSpace=wrap;rounded=0;" vertex="1" parent="1">
          <mxGeometry x="-775" y="375" width="70" height="30" as="geometry" />
        </mxCell>
        <mxCell id="1mkXny4aGShVq_r8HLl9-59" value="&lt;font style=&quot;font-size: 24px;&quot;&gt;C&lt;/font&gt;" style="text;html=1;align=center;verticalAlign=middle;whiteSpace=wrap;rounded=0;" vertex="1" parent="1">
          <mxGeometry x="-490" y="375" width="70" height="30" as="geometry" />
        </mxCell>
        <mxCell id="1mkXny4aGShVq_r8HLl9-60" value="&lt;font style=&quot;font-size: 24px;&quot;&gt;C&lt;/font&gt;" style="text;html=1;align=center;verticalAlign=middle;whiteSpace=wrap;rounded=0;" vertex="1" parent="1">
          <mxGeometry x="-325" y="1100" width="70" height="30" as="geometry" />
        </mxCell>
        <mxCell id="1mkXny4aGShVq_r8HLl9-61" value="&lt;font style=&quot;font-size: 24px;&quot;&gt;C&lt;/font&gt;" style="text;html=1;align=center;verticalAlign=middle;whiteSpace=wrap;rounded=0;" vertex="1" parent="1">
          <mxGeometry x="-695" y="1090" width="70" height="30" as="geometry" />
        </mxCell>
        <mxCell id="1mkXny4aGShVq_r8HLl9-62" value="&lt;font style=&quot;font-size: 24px;&quot;&gt;C&lt;/font&gt;" style="text;html=1;align=center;verticalAlign=middle;whiteSpace=wrap;rounded=0;" vertex="1" parent="1">
          <mxGeometry x="-985" y="1105" width="70" height="30" as="geometry" />
        </mxCell>
        <mxCell id="1mkXny4aGShVq_r8HLl9-63" value="&lt;font style=&quot;font-size: 24px;&quot;&gt;C&lt;/font&gt;" style="text;html=1;align=center;verticalAlign=middle;whiteSpace=wrap;rounded=0;" vertex="1" parent="1">
          <mxGeometry x="-1355" y="1105" width="70" height="30" as="geometry" />
        </mxCell>
        <mxCell id="1mkXny4aGShVq_r8HLl9-64" value="&lt;font style=&quot;font-size: 24px;&quot;&gt;C&lt;/font&gt;" style="text;html=1;align=center;verticalAlign=middle;whiteSpace=wrap;rounded=0;" vertex="1" parent="1">
          <mxGeometry x="-980" y="1585" width="70" height="30" as="geometry" />
        </mxCell>
        <mxCell id="1mkXny4aGShVq_r8HLl9-65" value="&lt;span style=&quot;font-size: 24px;&quot;&gt;A&lt;/span&gt;" style="text;html=1;align=center;verticalAlign=middle;whiteSpace=wrap;rounded=0;" vertex="1" parent="1">
          <mxGeometry x="-1535" y="1575" width="70" height="30" as="geometry" />
        </mxCell>
        <mxCell id="1mkXny4aGShVq_r8HLl9-66" value="&lt;font style=&quot;font-size: 24px;&quot;&gt;C&lt;/font&gt;" style="text;html=1;align=center;verticalAlign=middle;whiteSpace=wrap;rounded=0;" vertex="1" parent="1">
          <mxGeometry x="-1845" y="1815" width="70" height="30" as="geometry" />
        </mxCell>
        <mxCell id="1mkXny4aGShVq_r8HLl9-67" value="&lt;font style=&quot;font-size: 24px;&quot;&gt;C&lt;/font&gt;" style="text;html=1;align=center;verticalAlign=middle;whiteSpace=wrap;rounded=0;" vertex="1" parent="1">
          <mxGeometry x="-1225" y="1830" width="70" height="30" as="geometry" />
        </mxCell>
        <mxCell id="1mkXny4aGShVq_r8HLl9-68" value="&lt;span style=&quot;font-size: 24px;&quot;&gt;A&lt;/span&gt;" style="text;html=1;align=center;verticalAlign=middle;whiteSpace=wrap;rounded=0;" vertex="1" parent="1">
          <mxGeometry x="-1305" y="1335" width="70" height="30" as="geometry" />
        </mxCell>
        <mxCell id="1mkXny4aGShVq_r8HLl9-69" value="&lt;span style=&quot;font-size: 24px;&quot;&gt;A&lt;/span&gt;" style="text;html=1;align=center;verticalAlign=middle;whiteSpace=wrap;rounded=0;" vertex="1" parent="1">
          <mxGeometry x="-1155" y="855" width="70" height="30" as="geometry" />
        </mxCell>
        <mxCell id="1mkXny4aGShVq_r8HLl9-70" value="&lt;span style=&quot;font-size: 24px;&quot;&gt;A&lt;/span&gt;" style="text;html=1;align=center;verticalAlign=middle;whiteSpace=wrap;rounded=0;" vertex="1" parent="1">
          <mxGeometry x="-500" y="885" width="70" height="30" as="geometry" />
        </mxCell>
        <mxCell id="1mkXny4aGShVq_r8HLl9-71" value="&lt;span style=&quot;font-size: 24px;&quot;&gt;A&lt;/span&gt;" style="text;html=1;align=center;verticalAlign=middle;whiteSpace=wrap;rounded=0;" vertex="1" parent="1">
          <mxGeometry x="-815" y="655" width="70" height="30" as="geometry" />
        </mxCell>
        <mxCell id="1mkXny4aGShVq_r8HLl9-72" value="&lt;span style=&quot;font-size: 24px;&quot;&gt;A&lt;/span&gt;" style="text;html=1;align=center;verticalAlign=middle;whiteSpace=wrap;rounded=0;" vertex="1" parent="1">
          <mxGeometry x="-645" y="160" width="70" height="30" as="geometry" />
        </mxCell>
        <mxCell id="1mkXny4aGShVq_r8HLl9-73" value="&lt;span style=&quot;font-size: 24px;&quot;&gt;A&lt;/span&gt;" style="text;html=1;align=center;verticalAlign=middle;whiteSpace=wrap;rounded=0;" vertex="1" parent="1">
          <mxGeometry x="-645" y="25" width="70" height="30" as="geometry" />
        </mxCell>
      </root>
    </mxGraphModel>
  </diagram>
</mxfile>
